# xmcd
# 
# Track frame offsets:
#     150
#     19242
#     40555
#     65192
# 
# Disc length: 1196
# 
# Revision: 0
# Processed by: cddbd v1.5.2PL0 Copyright (c) Steve Scherf et al.
# Submitted via: BonkEnc v1.0.8
# 
DISCID=2f04aa04
DTITLE=Various Artist - 遙かなる時空の中で 3十六夜記 月のしずく
DYEAR=0
DGENRE=
TTITLE0=ヒノエ - 月を抱く天秤
TTITLE1=源九郎義経&梶原景時 - 満月は夜空の真珠
TTITLE2=藤原泰衡 - 黒き氷塊の楼閣
TTITLE3=銀 - 一輪の白芥子の懺悔
EXTD=
EXTT0=
EXTT1=
EXTT2=
EXTT3=
PLAYORDER=
